{
    "asset" : {
        "generator" : "Khronos glTF Blender I/O v1.8.19",
        "version" : "2.0"
    },
    "scene" : 0,
    "scenes" : [
        {
            "name" : "Scene",
            "nodes" : [
                0
            ]
        }
    ],
    "nodes" : [
        {
            "mesh" : 0,
            "name" : "House",
            "scale" : [
                0.8087518811225891,
                0.8087518811225891,
                0.8087518811225891
            ]
        }
    ],
    "materials" : [
        {
            "doubleSided" : true,
            "name" : "Material.001",
            "pbrMetallicRoughness" : {
                "baseColorFactor" : [
                    0.28828805685043335,
                    0.23602977395057678,
                    0.2147817760705948,
                    1
                ],
                "metallicFactor" : 0,
                "roughnessFactor" : 0.4000000059604645
            }
        },
        {
            "doubleSided" : true,
            "name" : "Material.003",
            "pbrMetallicRoughness" : {
                "baseColorFactor" : [
                    0.38851383328437805,
                    0.8275574445724487,
                    0.2239612489938736,
                    1
                ],
                "metallicFactor" : 0,
                "roughnessFactor" : 0.4000000059604645
            }
        },
        {
            "doubleSided" : true,
            "name" : "Material.004",
            "pbrMetallicRoughness" : {
                "baseColorFactor" : [
                    0.3029932975769043,
                    0.8000000715255737,
                    0.13682202994823456,
                    1
                ],
                "metallicFactor" : 0,
                "roughnessFactor" : 0.4000000059604645
            }
        },
        {
            "doubleSided" : true,
            "name" : "Material.005",
            "pbrMetallicRoughness" : {
                "baseColorFactor" : [
                    0.8000000715255737,
                    0.36931806802749634,
                    0.11648086458444595,
                    1
                ],
                "metallicFactor" : 0,
                "roughnessFactor" : 0.4000000059604645
            }
        },
        {
            "doubleSided" : true,
            "name" : "Material.006",
            "pbrMetallicRoughness" : {
                "baseColorFactor" : [
                    0.5173336267471313,
                    0.31598421931266785,
                    0.19557520747184753,
                    1
                ],
                "metallicFactor" : 0,
                "roughnessFactor" : 0.4000000059604645
            }
        },
        {
            "doubleSided" : true,
            "name" : "Material.008",
            "pbrMetallicRoughness" : {
                "baseColorFactor" : [
                    1,
                    0.2545417547225952,
                    0.2053840011358261,
                    1
                ],
                "metallicFactor" : 0,
                "roughnessFactor" : 0.4000000059604645
            }
        },
        {
            "doubleSided" : true,
            "name" : "Material.007",
            "pbrMetallicRoughness" : {
                "baseColorFactor" : [
                    1,
                    0.8900754451751709,
                    0.544771671295166,
                    1
                ],
                "metallicFactor" : 0,
                "roughnessFactor" : 0.4000000059604645
            }
        },
        {
            "doubleSided" : true,
            "name" : "Material.009",
            "pbrMetallicRoughness" : {
                "baseColorFactor" : [
                    0.8000000715255737,
                    0.4519142806529999,
                    0.23543445765972137,
                    1
                ],
                "metallicFactor" : 0,
                "roughnessFactor" : 0.4000000059604645
            }
        },
        {
            "doubleSided" : true,
            "name" : "Material.010",
            "pbrMetallicRoughness" : {
                "baseColorFactor" : [
                    0.18784946203231812,
                    0.5464528799057007,
                    0.8000000715255737,
                    1
                ],
                "metallicFactor" : 0,
                "roughnessFactor" : 0.4000000059604645
            }
        }
    ],
    "meshes" : [
        {
            "name" : "Icosphere",
            "primitives" : [
                {
                    "attributes" : {
                        "POSITION" : 0,
                        "NORMAL" : 1,
                        "TEXCOORD_0" : 2
                    },
                    "indices" : 3,
                    "material" : 0
                },
                {
                    "attributes" : {
                        "POSITION" : 4,
                        "NORMAL" : 5,
                        "TEXCOORD_0" : 6
                    },
                    "indices" : 7,
                    "material" : 1
                },
                {
                    "attributes" : {
                        "POSITION" : 8,
                        "NORMAL" : 9,
                        "TEXCOORD_0" : 10
                    },
                    "indices" : 11,
                    "material" : 2
                },
                {
                    "attributes" : {
                        "POSITION" : 12,
                        "NORMAL" : 13,
                        "TEXCOORD_0" : 14
                    },
                    "indices" : 15,
                    "material" : 3
                },
                {
                    "attributes" : {
                        "POSITION" : 16,
                        "NORMAL" : 17,
                        "TEXCOORD_0" : 18
                    },
                    "indices" : 19,
                    "material" : 4
                },
                {
                    "attributes" : {
                        "POSITION" : 20,
                        "NORMAL" : 21,
                        "TEXCOORD_0" : 22
                    },
                    "indices" : 23,
                    "material" : 5
                },
                {
                    "attributes" : {
                        "POSITION" : 24,
                        "NORMAL" : 25,
                        "TEXCOORD_0" : 26
                    },
                    "indices" : 27,
                    "material" : 6
                },
                {
                    "attributes" : {
                        "POSITION" : 28,
                        "NORMAL" : 29,
                        "TEXCOORD_0" : 30
                    },
                    "indices" : 31,
                    "material" : 7
                },
                {
                    "attributes" : {
                        "POSITION" : 32,
                        "NORMAL" : 33,
                        "TEXCOORD_0" : 34
                    },
                    "indices" : 35,
                    "material" : 8
                }
            ]
        }
    ],
    "accessors" : [
        {
            "bufferView" : 0,
            "componentType" : 5126,
            "count" : 858,
            "max" : [
                6.049684524536133,
                2.120269775390625,
                4.590084552764893
            ],
            "min" : [
                -4.947457313537598,
                -1.1045387983322144,
                -6.528637409210205
            ],
            "type" : "VEC3"
        },
        {
            "bufferView" : 1,
            "componentType" : 5126,
            "count" : 858,
            "type" : "VEC3"
        },
        {
            "bufferView" : 2,
            "componentType" : 5126,
            "count" : 858,
            "type" : "VEC2"
        },
        {
            "bufferView" : 3,
            "componentType" : 5123,
            "count" : 1491,
            "type" : "SCALAR"
        },
        {
            "bufferView" : 4,
            "componentType" : 5126,
            "count" : 40,
            "max" : [
                6.5254974365234375,
                -0.1334376335144043,
                5.340193271636963
            ],
            "min" : [
                -5.8392333984375,
                -2.60638427734375,
                -7.024538516998291
            ],
            "type" : "VEC3"
        },
        {
            "bufferView" : 5,
            "componentType" : 5126,
            "count" : 40,
            "type" : "VEC3"
        },
        {
            "bufferView" : 6,
            "componentType" : 5126,
            "count" : 40,
            "type" : "VEC2"
        },
        {
            "bufferView" : 7,
            "componentType" : 5123,
            "count" : 78,
            "type" : "SCALAR"
        },
        {
            "bufferView" : 8,
            "componentType" : 5126,
            "count" : 90,
            "max" : [
                4.432474613189697,
                2.8494253158569336,
                0.1506250500679016
            ],
            "min" : [
                2.344696044921875,
                0.72797030210495,
                -1.834970474243164
            ],
            "type" : "VEC3"
        },
        {
            "bufferView" : 9,
            "componentType" : 5126,
            "count" : 90,
            "type" : "VEC3"
        },
        {
            "bufferView" : 10,
            "componentType" : 5126,
            "count" : 90,
            "type" : "VEC2"
        },
        {
            "bufferView" : 11,
            "componentType" : 5123,
            "count" : 90,
            "type" : "SCALAR"
        },
        {
            "bufferView" : 12,
            "componentType" : 5126,
            "count" : 67,
            "max" : [
                3.532965898513794,
                1.1766695976257324,
                -0.7194114923477173
            ],
            "min" : [
                3.292088508605957,
                -0.20411765575408936,
                -0.9620027542114258
            ],
            "type" : "VEC3"
        },
        {
            "bufferView" : 13,
            "componentType" : 5126,
            "count" : 67,
            "type" : "VEC3"
        },
        {
            "bufferView" : 14,
            "componentType" : 5126,
            "count" : 67,
            "type" : "VEC2"
        },
        {
            "bufferView" : 15,
            "componentType" : 5123,
            "count" : 93,
            "type" : "SCALAR"
        },
        {
            "bufferView" : 16,
            "componentType" : 5126,
            "count" : 20,
            "max" : [
                -2.1517603397369385,
                1.7120000123977661,
                5.340193271636963
            ],
            "min" : [
                -3.8358163833618164,
                -0.5959862470626831,
                -7.024538516998291
            ],
            "type" : "VEC3"
        },
        {
            "bufferView" : 17,
            "componentType" : 5126,
            "count" : 20,
            "type" : "VEC3"
        },
        {
            "bufferView" : 18,
            "componentType" : 5126,
            "count" : 20,
            "type" : "VEC2"
        },
        {
            "bufferView" : 19,
            "componentType" : 5123,
            "count" : 30,
            "type" : "SCALAR"
        },
        {
            "bufferView" : 20,
            "componentType" : 5126,
            "count" : 66,
            "max" : [
                1.8030498027801514,
                6.116340160369873,
                4.191215515136719
            ],
            "min" : [
                -4.529295921325684,
                2.8859472274780273,
                -2.0785980224609375
            ],
            "type" : "VEC3"
        },
        {
            "bufferView" : 21,
            "componentType" : 5126,
            "count" : 66,
            "type" : "VEC3"
        },
        {
            "bufferView" : 22,
            "componentType" : 5126,
            "count" : 66,
            "type" : "VEC2"
        },
        {
            "bufferView" : 23,
            "componentType" : 5123,
            "count" : 96,
            "type" : "SCALAR"
        },
        {
            "bufferView" : 24,
            "componentType" : 5126,
            "count" : 24,
            "max" : [
                1.665374994277954,
                2.8859472274780273,
                4.054900646209717
            ],
            "min" : [
                -4.391620635986328,
                -0.643429160118103,
                -1.9422825574874878
            ],
            "type" : "VEC3"
        },
        {
            "bufferView" : 25,
            "componentType" : 5126,
            "count" : 24,
            "type" : "VEC3"
        },
        {
            "bufferView" : 26,
            "componentType" : 5126,
            "count" : 24,
            "type" : "VEC2"
        },
        {
            "bufferView" : 27,
            "componentType" : 5123,
            "count" : 36,
            "type" : "SCALAR"
        },
        {
            "bufferView" : 28,
            "componentType" : 5126,
            "count" : 365,
            "max" : [
                1.7106449604034424,
                2.120269775390625,
                4.095058441162109
            ],
            "min" : [
                -4.439364433288574,
                0.8304198980331421,
                -1.9925023317337036
            ],
            "type" : "VEC3"
        },
        {
            "bufferView" : 29,
            "componentType" : 5126,
            "count" : 365,
            "type" : "VEC3"
        },
        {
            "bufferView" : 30,
            "componentType" : 5126,
            "count" : 365,
            "type" : "VEC2"
        },
        {
            "bufferView" : 31,
            "componentType" : 5123,
            "count" : 762,
            "type" : "SCALAR"
        },
        {
            "bufferView" : 32,
            "componentType" : 5126,
            "count" : 32,
            "max" : [
                1.6194934844970703,
                1.982422113418579,
                4.021524429321289
            ],
            "min" : [
                -4.348212242126465,
                0.9945132732391357,
                -1.9013506174087524
            ],
            "type" : "VEC3"
        },
        {
            "bufferView" : 33,
            "componentType" : 5126,
            "count" : 32,
            "type" : "VEC3"
        },
        {
            "bufferView" : 34,
            "componentType" : 5126,
            "count" : 32,
            "type" : "VEC2"
        },
        {
            "bufferView" : 35,
            "componentType" : 5123,
            "count" : 48,
            "type" : "SCALAR"
        }
    ],
    "bufferViews" : [
        {
            "buffer" : 0,
            "byteLength" : 10296,
            "byteOffset" : 0
        },
        {
            "buffer" : 0,
            "byteLength" : 10296,
            "byteOffset" : 10296
        },
        {
            "buffer" : 0,
            "byteLength" : 6864,
            "byteOffset" : 20592
        },
        {
            "buffer" : 0,
            "byteLength" : 2982,
            "byteOffset" : 27456
        },
        {
            "buffer" : 0,
            "byteLength" : 480,
            "byteOffset" : 30440
        },
        {
            "buffer" : 0,
            "byteLength" : 480,
            "byteOffset" : 30920
        },
        {
            "buffer" : 0,
            "byteLength" : 320,
            "byteOffset" : 31400
        },
        {
            "buffer" : 0,
            "byteLength" : 156,
            "byteOffset" : 31720
        },
        {
            "buffer" : 0,
            "byteLength" : 1080,
            "byteOffset" : 31876
        },
        {
            "buffer" : 0,
            "byteLength" : 1080,
            "byteOffset" : 32956
        },
        {
            "buffer" : 0,
            "byteLength" : 720,
            "byteOffset" : 34036
        },
        {
            "buffer" : 0,
            "byteLength" : 180,
            "byteOffset" : 34756
        },
        {
            "buffer" : 0,
            "byteLength" : 804,
            "byteOffset" : 34936
        },
        {
            "buffer" : 0,
            "byteLength" : 804,
            "byteOffset" : 35740
        },
        {
            "buffer" : 0,
            "byteLength" : 536,
            "byteOffset" : 36544
        },
        {
            "buffer" : 0,
            "byteLength" : 186,
            "byteOffset" : 37080
        },
        {
            "buffer" : 0,
            "byteLength" : 240,
            "byteOffset" : 37268
        },
        {
            "buffer" : 0,
            "byteLength" : 240,
            "byteOffset" : 37508
        },
        {
            "buffer" : 0,
            "byteLength" : 160,
            "byteOffset" : 37748
        },
        {
            "buffer" : 0,
            "byteLength" : 60,
            "byteOffset" : 37908
        },
        {
            "buffer" : 0,
            "byteLength" : 792,
            "byteOffset" : 37968
        },
        {
            "buffer" : 0,
            "byteLength" : 792,
            "byteOffset" : 38760
        },
        {
            "buffer" : 0,
            "byteLength" : 528,
            "byteOffset" : 39552
        },
        {
            "buffer" : 0,
            "byteLength" : 192,
            "byteOffset" : 40080
        },
        {
            "buffer" : 0,
            "byteLength" : 288,
            "byteOffset" : 40272
        },
        {
            "buffer" : 0,
            "byteLength" : 288,
            "byteOffset" : 40560
        },
        {
            "buffer" : 0,
            "byteLength" : 192,
            "byteOffset" : 40848
        },
        {
            "buffer" : 0,
            "byteLength" : 72,
            "byteOffset" : 41040
        },
        {
            "buffer" : 0,
            "byteLength" : 4380,
            "byteOffset" : 41112
        },
        {
            "buffer" : 0,
            "byteLength" : 4380,
            "byteOffset" : 45492
        },
        {
            "buffer" : 0,
            "byteLength" : 2920,
            "byteOffset" : 49872
        },
        {
            "buffer" : 0,
            "byteLength" : 1524,
            "byteOffset" : 52792
        },
        {
            "buffer" : 0,
            "byteLength" : 384,
            "byteOffset" : 54316
        },
        {
            "buffer" : 0,
            "byteLength" : 384,
            "byteOffset" : 54700
        },
        {
            "buffer" : 0,
            "byteLength" : 256,
            "byteOffset" : 55084
        },
        {
            "buffer" : 0,
            "byteLength" : 96,
            "byteOffset" : 55340
        }
    ],
    "buffers" : [
        {
            "byteLength" : 55436,
            "uri" : "data:application/octet-stream;base64,"
        }
    ]
}
