{
    "asset" : {
        "generator" : "Khronos glTF Blender I/O v1.8.19",
        "version" : "2.0"
    },
    "scene" : 0,
    "scenes" : [
        {
            "name" : "Scene",
            "nodes" : [
                0,
                1,
                2,
                3,
                4
            ]
        }
    ],
    "nodes" : [
        {
            "mesh" : 0,
            "name" : "Cylinder",
            "rotation" : [
                -0.7061750292778015,
                0,
                0,
                0.7080373167991638
            ],
            "scale" : [
                0.21260155737400055,
                1.322021484375,
                0.21262933313846588
            ]
        },
        {
            "mesh" : 1,
            "name" : "Icosphere",
            "scale" : [
                0.3779909312725067,
                0.3779909312725067,
                0.3779909312725067
            ],
            "translation" : [
                -0.2153758704662323,
                0,
                1.3279850482940674
            ]
        },
        {
            "mesh" : 2,
            "name" : "Icosphere.002",
            "scale" : [
                0.3779909312725067,
                0.3779909312725067,
                0.3779909312725067
            ],
            "translation" : [
                0.2657909393310547,
                0,
                1.3279850482940674
            ]
        },
        {
            "mesh" : 3,
            "name" : "Icosphere.003",
            "scale" : [
                0.3779909312725067,
                0.3779909312725067,
                0.3779909312725067
            ],
            "translation" : [
                -0.2153758704662323,
                0,
                -1.3174238204956055
            ]
        },
        {
            "mesh" : 4,
            "name" : "Icosphere.001",
            "scale" : [
                0.3779909312725067,
                0.3779909312725067,
                0.3779909312725067
            ],
            "translation" : [
                0.2657909393310547,
                0,
                -1.3174238204956055
            ]
        }
    ],
    "meshes" : [
        {
            "name" : "Cylinder.001",
            "primitives" : [
                {
                    "attributes" : {
                        "POSITION" : 0,
                        "NORMAL" : 1,
                        "TEXCOORD_0" : 2
                    },
                    "indices" : 3
                }
            ]
        },
        {
            "name" : "Icosphere",
            "primitives" : [
                {
                    "attributes" : {
                        "POSITION" : 4,
                        "NORMAL" : 5,
                        "TEXCOORD_0" : 6
                    },
                    "indices" : 7
                }
            ]
        },
        {
            "name" : "Icosphere.002",
            "primitives" : [
                {
                    "attributes" : {
                        "POSITION" : 8,
                        "NORMAL" : 9,
                        "TEXCOORD_0" : 10
                    },
                    "indices" : 7
                }
            ]
        },
        {
            "name" : "Icosphere.004",
            "primitives" : [
                {
                    "attributes" : {
                        "POSITION" : 11,
                        "NORMAL" : 12,
                        "TEXCOORD_0" : 13
                    },
                    "indices" : 7
                }
            ]
        },
        {
            "name" : "Icosphere.003",
            "primitives" : [
                {
                    "attributes" : {
                        "POSITION" : 14,
                        "NORMAL" : 15,
                        "TEXCOORD_0" : 16
                    },
                    "indices" : 7
                }
            ]
        }
    ],
    "accessors" : [
        {
            "bufferView" : 0,
            "componentType" : 5126,
            "count" : 130,
            "max" : [
                1,
                1,
                1
            ],
            "min" : [
                -1,
                -1,
                -1
            ],
            "type" : "VEC3"
        },
        {
            "bufferView" : 1,
            "componentType" : 5126,
            "count" : 130,
            "type" : "VEC3"
        },
        {
            "bufferView" : 2,
            "componentType" : 5126,
            "count" : 130,
            "type" : "VEC2"
        },
        {
            "bufferView" : 3,
            "componentType" : 5123,
            "count" : 372,
            "type" : "SCALAR"
        },
        {
            "bufferView" : 4,
            "componentType" : 5126,
            "count" : 63,
            "max" : [
                0.9510578513145447,
                1,
                0.9999999403953552
            ],
            "min" : [
                -0.9510578513145447,
                -1,
                -0.9999999403953552
            ],
            "type" : "VEC3"
        },
        {
            "bufferView" : 5,
            "componentType" : 5126,
            "count" : 63,
            "type" : "VEC3"
        },
        {
            "bufferView" : 6,
            "componentType" : 5126,
            "count" : 63,
            "type" : "VEC2"
        },
        {
            "bufferView" : 7,
            "componentType" : 5123,
            "count" : 240,
            "type" : "SCALAR"
        },
        {
            "bufferView" : 8,
            "componentType" : 5126,
            "count" : 63,
            "max" : [
                0.9510578513145447,
                1,
                0.9999999403953552
            ],
            "min" : [
                -0.9510578513145447,
                -1,
                -0.9999999403953552
            ],
            "type" : "VEC3"
        },
        {
            "bufferView" : 9,
            "componentType" : 5126,
            "count" : 63,
            "type" : "VEC3"
        },
        {
            "bufferView" : 10,
            "componentType" : 5126,
            "count" : 63,
            "type" : "VEC2"
        },
        {
            "bufferView" : 11,
            "componentType" : 5126,
            "count" : 63,
            "max" : [
                0.9510578513145447,
                1,
                0.9999999403953552
            ],
            "min" : [
                -0.9510578513145447,
                -1,
                -0.9999999403953552
            ],
            "type" : "VEC3"
        },
        {
            "bufferView" : 12,
            "componentType" : 5126,
            "count" : 63,
            "type" : "VEC3"
        },
        {
            "bufferView" : 13,
            "componentType" : 5126,
            "count" : 63,
            "type" : "VEC2"
        },
        {
            "bufferView" : 14,
            "componentType" : 5126,
            "count" : 63,
            "max" : [
                0.9510578513145447,
                1,
                0.9999999403953552
            ],
            "min" : [
                -0.9510578513145447,
                -1,
                -0.9999999403953552
            ],
            "type" : "VEC3"
        },
        {
            "bufferView" : 15,
            "componentType" : 5126,
            "count" : 63,
            "type" : "VEC3"
        },
        {
            "bufferView" : 16,
            "componentType" : 5126,
            "count" : 63,
            "type" : "VEC2"
        }
    ],
    "bufferViews" : [
        {
            "buffer" : 0,
            "byteLength" : 1560,
            "byteOffset" : 0
        },
        {
            "buffer" : 0,
            "byteLength" : 1560,
            "byteOffset" : 1560
        },
        {
            "buffer" : 0,
            "byteLength" : 1040,
            "byteOffset" : 3120
        },
        {
            "buffer" : 0,
            "byteLength" : 744,
            "byteOffset" : 4160
        },
        {
            "buffer" : 0,
            "byteLength" : 756,
            "byteOffset" : 4904
        },
        {
            "buffer" : 0,
            "byteLength" : 756,
            "byteOffset" : 5660
        },
        {
            "buffer" : 0,
            "byteLength" : 504,
            "byteOffset" : 6416
        },
        {
            "buffer" : 0,
            "byteLength" : 480,
            "byteOffset" : 6920
        },
        {
            "buffer" : 0,
            "byteLength" : 756,
            "byteOffset" : 7400
        },
        {
            "buffer" : 0,
            "byteLength" : 756,
            "byteOffset" : 8156
        },
        {
            "buffer" : 0,
            "byteLength" : 504,
            "byteOffset" : 8912
        },
        {
            "buffer" : 0,
            "byteLength" : 756,
            "byteOffset" : 9416
        },
        {
            "buffer" : 0,
            "byteLength" : 756,
            "byteOffset" : 10172
        },
        {
            "buffer" : 0,
            "byteLength" : 504,
            "byteOffset" : 10928
        },
        {
            "buffer" : 0,
            "byteLength" : 756,
            "byteOffset" : 11432
        },
        {
            "buffer" : 0,
            "byteLength" : 756,
            "byteOffset" : 12188
        },
        {
            "buffer" : 0,
            "byteLength" : 504,
            "byteOffset" : 12944
        }
    ],
    "buffers" : [
        {
            "byteLength" : 13448,
            "uri" : "data:application/octet-stream;base64,"
        }
    ]
}
