{
    "asset" : {
        "generator" : "Khronos glTF Blender I/O v1.8.19",
        "version" : "2.0"
    },
    "scene" : 0,
    "scenes" : [
        {
            "name" : "Scene",
            "nodes" : [
                0
            ]
        }
    ],
    "nodes" : [
        {
            "mesh" : 0,
            "name" : "Cone.002",
            "rotation" : [
                0,
                -0.7168830037117004,
                0,
                0.697193443775177
            ],
            "scale" : [
                1.8741538524627686,
                1.6945161819458008,
                1.9646967649459839
            ],
            "translation" : [
                0.035471055656671524,
                -0.2521066665649414,
                0.011569676920771599
            ]
        }
    ],
    "materials" : [
        {
            "doubleSided" : true,
            "name" : "Material",
            "pbrMetallicRoughness" : {
                "baseColorFactor" : [
                    0.21403004229068756,
                    0.10284765809774399,
                    0.06799282878637314,
                    1
                ],
                "metallicFactor" : 0,
                "roughnessFactor" : 1
            }
        },
        {
            "doubleSided" : true,
            "name" : "Material.001",
            "pbrMetallicRoughness" : {
                "baseColorFactor" : [
                    0.48689714074134827,
                    0.24644209444522858,
                    0.13989315927028656,
                    1
                ],
                "metallicFactor" : 0,
                "roughnessFactor" : 1
            }
        },
        {
            "doubleSided" : true,
            "name" : "Material.002",
            "pbrMetallicRoughness" : {
                "baseColorFactor" : [
                    0.8275574445724487,
                    0.3884913921356201,
                    0.19187957048416138,
                    1
                ],
                "metallicFactor" : 0,
                "roughnessFactor" : 1
            }
        }
    ],
    "meshes" : [
        {
            "name" : "Cone.003",
            "primitives" : [
                {
                    "attributes" : {
                        "POSITION" : 0,
                        "NORMAL" : 1,
                        "TEXCOORD_0" : 2
                    },
                    "indices" : 3,
                    "material" : 0
                },
                {
                    "attributes" : {
                        "POSITION" : 4,
                        "NORMAL" : 5,
                        "TEXCOORD_0" : 6
                    },
                    "indices" : 7,
                    "material" : 1
                },
                {
                    "attributes" : {
                        "POSITION" : 8,
                        "NORMAL" : 9,
                        "TEXCOORD_0" : 10
                    },
                    "indices" : 11,
                    "material" : 2
                }
            ]
        }
    ],
    "accessors" : [
        {
            "bufferView" : 0,
            "componentType" : 5126,
            "count" : 564,
            "max" : [
                1.571005940437317,
                2.99354887008667,
                1.584403157234192
            ],
            "min" : [
                -1.5739109516143799,
                -0.131517231464386,
                -1.5699621438980103
            ],
            "type" : "VEC3"
        },
        {
            "bufferView" : 1,
            "componentType" : 5126,
            "count" : 564,
            "type" : "VEC3"
        },
        {
            "bufferView" : 2,
            "componentType" : 5126,
            "count" : 564,
            "type" : "VEC2"
        },
        {
            "bufferView" : 3,
            "componentType" : 5123,
            "count" : 912,
            "type" : "SCALAR"
        },
        {
            "bufferView" : 4,
            "componentType" : 5126,
            "count" : 432,
            "max" : [
                1.374985933303833,
                3.171114921569824,
                1.3127460479736328
            ],
            "min" : [
                -1.391625165939331,
                0.05890864133834839,
                -1.3007310628890991
            ],
            "type" : "VEC3"
        },
        {
            "bufferView" : 5,
            "componentType" : 5126,
            "count" : 432,
            "type" : "VEC3"
        },
        {
            "bufferView" : 6,
            "componentType" : 5126,
            "count" : 432,
            "type" : "VEC2"
        },
        {
            "bufferView" : 7,
            "componentType" : 5123,
            "count" : 552,
            "type" : "SCALAR"
        },
        {
            "bufferView" : 8,
            "componentType" : 5126,
            "count" : 960,
            "max" : [
                1.261094331741333,
                3.2051429748535156,
                1.3442342281341553
            ],
            "min" : [
                -1.2643307447433472,
                -0.13151752948760986,
                -1.251460313796997
            ],
            "type" : "VEC3"
        },
        {
            "bufferView" : 9,
            "componentType" : 5126,
            "count" : 960,
            "type" : "VEC3"
        },
        {
            "bufferView" : 10,
            "componentType" : 5126,
            "count" : 960,
            "type" : "VEC2"
        },
        {
            "bufferView" : 11,
            "componentType" : 5123,
            "count" : 1692,
            "type" : "SCALAR"
        }
    ],
    "bufferViews" : [
        {
            "buffer" : 0,
            "byteLength" : 6768,
            "byteOffset" : 0
        },
        {
            "buffer" : 0,
            "byteLength" : 6768,
            "byteOffset" : 6768
        },
        {
            "buffer" : 0,
            "byteLength" : 4512,
            "byteOffset" : 13536
        },
        {
            "buffer" : 0,
            "byteLength" : 1824,
            "byteOffset" : 18048
        },
        {
            "buffer" : 0,
            "byteLength" : 5184,
            "byteOffset" : 19872
        },
        {
            "buffer" : 0,
            "byteLength" : 5184,
            "byteOffset" : 25056
        },
        {
            "buffer" : 0,
            "byteLength" : 3456,
            "byteOffset" : 30240
        },
        {
            "buffer" : 0,
            "byteLength" : 1104,
            "byteOffset" : 33696
        },
        {
            "buffer" : 0,
            "byteLength" : 11520,
            "byteOffset" : 34800
        },
        {
            "buffer" : 0,
            "byteLength" : 11520,
            "byteOffset" : 46320
        },
        {
            "buffer" : 0,
            "byteLength" : 7680,
            "byteOffset" : 57840
        },
        {
            "buffer" : 0,
            "byteLength" : 3384,
            "byteOffset" : 65520
        }
    ],
    "buffers" : [
        {
            "byteLength" : 68904,
            "uri" : "data:application/octet-stream;base64,"
        }
    ]
}
