{
    "asset" : {
        "generator" : "Khronos glTF Blender I/O v1.8.19",
        "version" : "2.0"
    },
    "scene" : 0,
    "scenes" : [
        {
            "name" : "Scene",
            "nodes" : [
                0,
                1
            ]
        }
    ],
    "nodes" : [
        {
            "mesh" : 0,
            "name" : "Cylinder",
            "rotation" : [
                0,
                0,
                -0.7071068286895752,
                0.7071068286895752
            ],
            "scale" : [
                0.17094504833221436,
                1.1161601543426514,
                0.17094504833221436
            ]
        },
        {
            "mesh" : 1,
            "name" : "Cylinder.001",
            "scale" : [
                2.3787271976470947,
                2.3787271976470947,
                2.3787271976470947
            ],
            "translation" : [
                -4.804560661315918,
                0,
                0
            ]
        }
    ],
    "materials" : [
        {
            "doubleSided" : true,
            "name" : "CockPit.001",
            "pbrMetallicRoughness" : {
                "baseColorFactor" : [
                    0.046961862593889236,
                    0.046961862593889236,
                    0.046961862593889236,
                    1
                ],
                "metallicFactor" : 1,
                "roughnessFactor" : 0.7089552283287048
            }
        },
        {
            "doubleSided" : true,
            "name" : "Material.002",
            "pbrMetallicRoughness" : {
                "baseColorFactor" : [
                    0.2229347974061966,
                    0.25259801745414734,
                    0.25979921221733093,
                    1
                ],
                "metallicFactor" : 0.13467872142791748,
                "roughnessFactor" : 0.906103253364563
            }
        },
        {
            "doubleSided" : true,
            "name" : "Material.003",
            "pbrMetallicRoughness" : {
                "baseColorFactor" : [
                    0.8006130456924438,
                    0.941959023475647,
                    0.9699217081069946,
                    1
                ],
                "metallicFactor" : 0.28358209133148193,
                "roughnessFactor" : 1
            }
        },
        {
            "doubleSided" : true,
            "name" : "Material.009",
            "pbrMetallicRoughness" : {
                "baseColorFactor" : [
                    0.6618639230728149,
                    0.0007698562112636864,
                    0,
                    1
                ],
                "metallicFactor" : 0,
                "roughnessFactor" : 1
            }
        },
        {
            "doubleSided" : true,
            "name" : "Material.008",
            "pbrMetallicRoughness" : {
                "baseColorFactor" : [
                    0.31385767459869385,
                    0.4385440945625305,
                    0.2652781903743744,
                    1
                ],
                "metallicFactor" : 0,
                "roughnessFactor" : 1
            }
        },
        {
            "doubleSided" : true,
            "name" : "Material.007",
            "pbrMetallicRoughness" : {
                "baseColorFactor" : [
                    0.779251217842102,
                    0.8499760627746582,
                    1,
                    1
                ],
                "metallicFactor" : 0,
                "roughnessFactor" : 0.4000000059604645
            }
        },
        {
            "doubleSided" : true,
            "name" : "Material.006",
            "pbrMetallicRoughness" : {
                "baseColorFactor" : [
                    0.5206077694892883,
                    0.6401432752609253,
                    0.8000000715255737,
                    1
                ],
                "metallicFactor" : 0,
                "roughnessFactor" : 0.4000000059604645
            }
        }
    ],
    "meshes" : [
        {
            "name" : "Cylinder",
            "primitives" : [
                {
                    "attributes" : {
                        "POSITION" : 0,
                        "NORMAL" : 1,
                        "TEXCOORD_0" : 2
                    },
                    "indices" : 3,
                    "material" : 0
                },
                {
                    "attributes" : {
                        "POSITION" : 4,
                        "NORMAL" : 5,
                        "TEXCOORD_0" : 6
                    },
                    "indices" : 7,
                    "material" : 1
                },
                {
                    "attributes" : {
                        "POSITION" : 8,
                        "NORMAL" : 9,
                        "TEXCOORD_0" : 10
                    },
                    "indices" : 11,
                    "material" : 2
                }
            ]
        },
        {
            "name" : "Cylinder.001",
            "primitives" : [
                {
                    "attributes" : {
                        "POSITION" : 12,
                        "NORMAL" : 13,
                        "TEXCOORD_0" : 14
                    },
                    "indices" : 15,
                    "material" : 3
                },
                {
                    "attributes" : {
                        "POSITION" : 16,
                        "NORMAL" : 17,
                        "TEXCOORD_0" : 18
                    },
                    "indices" : 19,
                    "material" : 4
                },
                {
                    "attributes" : {
                        "POSITION" : 20,
                        "NORMAL" : 21,
                        "TEXCOORD_0" : 22
                    },
                    "indices" : 23,
                    "material" : 5
                },
                {
                    "attributes" : {
                        "POSITION" : 24,
                        "NORMAL" : 25,
                        "TEXCOORD_0" : 26
                    },
                    "indices" : 27,
                    "material" : 6
                }
            ]
        }
    ],
    "accessors" : [
        {
            "bufferView" : 0,
            "componentType" : 5126,
            "count" : 228,
            "max" : [
                -0.6509836316108704,
                1.29848051071167,
                0.7724304795265198
            ],
            "min" : [
                -1.7790017127990723,
                0.6950831413269043,
                -0.77562016248703
            ],
            "type" : "VEC3"
        },
        {
            "bufferView" : 1,
            "componentType" : 5126,
            "count" : 228,
            "type" : "VEC3"
        },
        {
            "bufferView" : 2,
            "componentType" : 5126,
            "count" : 228,
            "type" : "VEC2"
        },
        {
            "bufferView" : 3,
            "componentType" : 5123,
            "count" : 342,
            "type" : "SCALAR"
        },
        {
            "bufferView" : 4,
            "componentType" : 5126,
            "count" : 2448,
            "max" : [
                1.52211594581604,
                2.05894136428833,
                7.035917282104492
            ],
            "min" : [
                -4.616940498352051,
                -1.170060157775879,
                -7.039105415344238
            ],
            "type" : "VEC3"
        },
        {
            "bufferView" : 5,
            "componentType" : 5126,
            "count" : 2448,
            "type" : "VEC3"
        },
        {
            "bufferView" : 6,
            "componentType" : 5126,
            "count" : 2448,
            "type" : "VEC2"
        },
        {
            "bufferView" : 7,
            "componentType" : 5123,
            "count" : 3750,
            "type" : "SCALAR"
        },
        {
            "bufferView" : 8,
            "componentType" : 5126,
            "count" : 282,
            "max" : [
                0.762869656085968,
                -1.122468113899231,
                0.7398121953010559
            ],
            "min" : [
                -0.618736207485199,
                -1.279484748840332,
                -0.7430006265640259
            ],
            "type" : "VEC3"
        },
        {
            "bufferView" : 9,
            "componentType" : 5126,
            "count" : 282,
            "type" : "VEC3"
        },
        {
            "bufferView" : 10,
            "componentType" : 5126,
            "count" : 282,
            "type" : "VEC2"
        },
        {
            "bufferView" : 11,
            "componentType" : 5123,
            "count" : 468,
            "type" : "SCALAR"
        },
        {
            "bufferView" : 12,
            "componentType" : 5126,
            "count" : 264,
            "max" : [
                0.4838672876358032,
                0.08399651944637299,
                0.08365701884031296
            ],
            "min" : [
                -0.3156448006629944,
                -0.0861901119351387,
                -0.08837396651506424
            ],
            "type" : "VEC3"
        },
        {
            "bufferView" : 13,
            "componentType" : 5126,
            "count" : 264,
            "type" : "VEC3"
        },
        {
            "bufferView" : 14,
            "componentType" : 5126,
            "count" : 264,
            "type" : "VEC2"
        },
        {
            "bufferView" : 15,
            "componentType" : 5123,
            "count" : 438,
            "type" : "SCALAR"
        },
        {
            "bufferView" : 16,
            "componentType" : 5126,
            "count" : 640,
            "max" : [
                0.4536040723323822,
                0.03376474604010582,
                0.041574686765670776
            ],
            "min" : [
                0.3007693290710449,
                -0.039390530437231064,
                -0.03198402374982834
            ],
            "type" : "VEC3"
        },
        {
            "bufferView" : 17,
            "componentType" : 5126,
            "count" : 640,
            "type" : "VEC3"
        },
        {
            "bufferView" : 18,
            "componentType" : 5126,
            "count" : 640,
            "type" : "VEC2"
        },
        {
            "bufferView" : 19,
            "componentType" : 5123,
            "count" : 960,
            "type" : "SCALAR"
        },
        {
            "bufferView" : 20,
            "componentType" : 5126,
            "count" : 440,
            "max" : [
                0.3020552396774292,
                0.07872737944126129,
                0.07793829590082169
            ],
            "min" : [
                -0.31162726879119873,
                -0.07996363937854767,
                -0.08198674023151398
            ],
            "type" : "VEC3"
        },
        {
            "bufferView" : 21,
            "componentType" : 5126,
            "count" : 440,
            "type" : "VEC3"
        },
        {
            "bufferView" : 22,
            "componentType" : 5126,
            "count" : 440,
            "type" : "VEC2"
        },
        {
            "bufferView" : 23,
            "componentType" : 5123,
            "count" : 660,
            "type" : "SCALAR"
        },
        {
            "bufferView" : 24,
            "componentType" : 5126,
            "count" : 288,
            "max" : [
                -0.2755591571331024,
                0.03936072438955307,
                0.03252706304192543
            ],
            "min" : [
                -0.320014089345932,
                -0.033794552087783813,
                -0.040464237332344055
            ],
            "type" : "VEC3"
        },
        {
            "bufferView" : 25,
            "componentType" : 5126,
            "count" : 288,
            "type" : "VEC3"
        },
        {
            "bufferView" : 26,
            "componentType" : 5126,
            "count" : 288,
            "type" : "VEC2"
        },
        {
            "bufferView" : 27,
            "componentType" : 5123,
            "count" : 474,
            "type" : "SCALAR"
        }
    ],
    "bufferViews" : [
        {
            "buffer" : 0,
            "byteLength" : 2736,
            "byteOffset" : 0
        },
        {
            "buffer" : 0,
            "byteLength" : 2736,
            "byteOffset" : 2736
        },
        {
            "buffer" : 0,
            "byteLength" : 1824,
            "byteOffset" : 5472
        },
        {
            "buffer" : 0,
            "byteLength" : 684,
            "byteOffset" : 7296
        },
        {
            "buffer" : 0,
            "byteLength" : 29376,
            "byteOffset" : 7980
        },
        {
            "buffer" : 0,
            "byteLength" : 29376,
            "byteOffset" : 37356
        },
        {
            "buffer" : 0,
            "byteLength" : 19584,
            "byteOffset" : 66732
        },
        {
            "buffer" : 0,
            "byteLength" : 7500,
            "byteOffset" : 86316
        },
        {
            "buffer" : 0,
            "byteLength" : 3384,
            "byteOffset" : 93816
        },
        {
            "buffer" : 0,
            "byteLength" : 3384,
            "byteOffset" : 97200
        },
        {
            "buffer" : 0,
            "byteLength" : 2256,
            "byteOffset" : 100584
        },
        {
            "buffer" : 0,
            "byteLength" : 936,
            "byteOffset" : 102840
        },
        {
            "buffer" : 0,
            "byteLength" : 3168,
            "byteOffset" : 103776
        },
        {
            "buffer" : 0,
            "byteLength" : 3168,
            "byteOffset" : 106944
        },
        {
            "buffer" : 0,
            "byteLength" : 2112,
            "byteOffset" : 110112
        },
        {
            "buffer" : 0,
            "byteLength" : 876,
            "byteOffset" : 112224
        },
        {
            "buffer" : 0,
            "byteLength" : 7680,
            "byteOffset" : 113100
        },
        {
            "buffer" : 0,
            "byteLength" : 7680,
            "byteOffset" : 120780
        },
        {
            "buffer" : 0,
            "byteLength" : 5120,
            "byteOffset" : 128460
        },
        {
            "buffer" : 0,
            "byteLength" : 1920,
            "byteOffset" : 133580
        },
        {
            "buffer" : 0,
            "byteLength" : 5280,
            "byteOffset" : 135500
        },
        {
            "buffer" : 0,
            "byteLength" : 5280,
            "byteOffset" : 140780
        },
        {
            "buffer" : 0,
            "byteLength" : 3520,
            "byteOffset" : 146060
        },
        {
            "buffer" : 0,
            "byteLength" : 1320,
            "byteOffset" : 149580
        },
        {
            "buffer" : 0,
            "byteLength" : 3456,
            "byteOffset" : 150900
        },
        {
            "buffer" : 0,
            "byteLength" : 3456,
            "byteOffset" : 154356
        },
        {
            "buffer" : 0,
            "byteLength" : 2304,
            "byteOffset" : 157812
        },
        {
            "buffer" : 0,
            "byteLength" : 948,
            "byteOffset" : 160116
        }
    ],
    "buffers" : [
        {
            "byteLength" : 161064,
            "uri" : "data:application/octet-stream;base64,"
        }
    ]
}
