{
    "asset" : {
        "generator" : "Khronos glTF Blender I/O v1.8.19",
        "version" : "2.0"
    },
    "scene" : 0,
    "scenes" : [
        {
            "name" : "Scene",
            "nodes" : [
                0
            ]
        }
    ],
    "nodes" : [
        {
            "mesh" : 0,
            "name" : "Icosphere",
            "scale" : [
                6.498563766479492,
                0.2268448919057846,
                4.600219249725342
            ],
            "translation" : [
                0,
                -0.10206755250692368,
                0
            ]
        }
    ],
    "materials" : [
        {
            "doubleSided" : true,
            "name" : "Material.083",
            "pbrMetallicRoughness" : {
                "baseColorFactor" : [
                    0.46720191836357117,
                    0.2029723972082138,
                    0.11097680032253265,
                    1
                ],
                "metallicFactor" : 0,
                "roughnessFactor" : 0.4000000059604645
            }
        },
        {
            "doubleSided" : true,
            "name" : "Material.507",
            "pbrMetallicRoughness" : {
                "baseColorFactor" : [
                    0.1106889471411705,
                    0.08056885004043579,
                    0.07101774215698242,
                    1
                ],
                "metallicFactor" : 0,
                "roughnessFactor" : 0.4000000059604645
            }
        },
        {
            "doubleSided" : true,
            "name" : "Material.506",
            "pbrMetallicRoughness" : {
                "baseColorFactor" : [
                    0.3108133375644684,
                    0.1493169516324997,
                    0.05362086370587349,
                    1
                ],
                "metallicFactor" : 0,
                "roughnessFactor" : 1
            }
        },
        {
            "doubleSided" : true,
            "name" : "Material.070",
            "pbrMetallicRoughness" : {
                "baseColorFactor" : [
                    0.467202365398407,
                    0.23963285982608795,
                    0.1231214702129364,
                    1
                ],
                "metallicFactor" : 0,
                "roughnessFactor" : 0.4000000059604645
            }
        },
        {
            "doubleSided" : true,
            "name" : "Material",
            "pbrMetallicRoughness" : {
                "baseColorFactor" : [
                    0.32637572288513184,
                    0.15695922076702118,
                    0.06758193671703339,
                    1
                ],
                "metallicFactor" : 0,
                "roughnessFactor" : 1
            }
        }
    ],
    "meshes" : [
        {
            "name" : "Icosphere",
            "primitives" : [
                {
                    "attributes" : {
                        "POSITION" : 0,
                        "NORMAL" : 1,
                        "TEXCOORD_0" : 2
                    },
                    "indices" : 3,
                    "material" : 0
                },
                {
                    "attributes" : {
                        "POSITION" : 4,
                        "NORMAL" : 5,
                        "TEXCOORD_0" : 6
                    },
                    "indices" : 7,
                    "material" : 1
                },
                {
                    "attributes" : {
                        "POSITION" : 8,
                        "NORMAL" : 9,
                        "TEXCOORD_0" : 10
                    },
                    "indices" : 11,
                    "material" : 2
                },
                {
                    "attributes" : {
                        "POSITION" : 12,
                        "NORMAL" : 13,
                        "TEXCOORD_0" : 14
                    },
                    "indices" : 15,
                    "material" : 3
                },
                {
                    "attributes" : {
                        "POSITION" : 16,
                        "NORMAL" : 17,
                        "TEXCOORD_0" : 18
                    },
                    "indices" : 19,
                    "material" : 4
                }
            ]
        }
    ],
    "accessors" : [
        {
            "bufferView" : 0,
            "componentType" : 5126,
            "count" : 72,
            "max" : [
                0.5359396934509277,
                10.89437484741211,
                0.6488592624664307
            ],
            "min" : [
                0.3221360445022583,
                -0.4817824363708496,
                0.610982358455658
            ],
            "type" : "VEC3"
        },
        {
            "bufferView" : 1,
            "componentType" : 5126,
            "count" : 72,
            "type" : "VEC3"
        },
        {
            "bufferView" : 2,
            "componentType" : 5126,
            "count" : 72,
            "type" : "VEC2"
        },
        {
            "bufferView" : 3,
            "componentType" : 5123,
            "count" : 108,
            "type" : "SCALAR"
        },
        {
            "bufferView" : 4,
            "componentType" : 5126,
            "count" : 24,
            "max" : [
                0.6324378252029419,
                0.7234491109848022,
                0.5983801484107971
            ],
            "min" : [
                -0.6324378252029419,
                0.1764393448829651,
                -0.5983801484107971
            ],
            "type" : "VEC3"
        },
        {
            "bufferView" : 5,
            "componentType" : 5126,
            "count" : 24,
            "type" : "VEC3"
        },
        {
            "bufferView" : 6,
            "componentType" : 5126,
            "count" : 24,
            "type" : "VEC2"
        },
        {
            "bufferView" : 7,
            "componentType" : 5123,
            "count" : 36,
            "type" : "SCALAR"
        },
        {
            "bufferView" : 8,
            "componentType" : 5126,
            "count" : 964,
            "max" : [
                0.6488863825798035,
                10.806944847106934,
                0.6342360377311707
            ],
            "min" : [
                -0.6416999697685242,
                0.44418859481811523,
                -0.637712836265564
            ],
            "type" : "VEC3"
        },
        {
            "bufferView" : 9,
            "componentType" : 5126,
            "count" : 964,
            "type" : "VEC3"
        },
        {
            "bufferView" : 10,
            "componentType" : 5126,
            "count" : 964,
            "type" : "VEC2"
        },
        {
            "bufferView" : 11,
            "componentType" : 5123,
            "count" : 1446,
            "type" : "SCALAR"
        },
        {
            "bufferView" : 12,
            "componentType" : 5126,
            "count" : 416,
            "max" : [
                0.6511645317077637,
                10.932497024536133,
                0.6358746290206909
            ],
            "min" : [
                -0.6427962183952332,
                0.03558063507080078,
                -0.6380295157432556
            ],
            "type" : "VEC3"
        },
        {
            "bufferView" : 13,
            "componentType" : 5126,
            "count" : 416,
            "type" : "VEC3"
        },
        {
            "bufferView" : 14,
            "componentType" : 5126,
            "count" : 416,
            "type" : "VEC2"
        },
        {
            "bufferView" : 15,
            "componentType" : 5123,
            "count" : 660,
            "type" : "SCALAR"
        },
        {
            "bufferView" : 16,
            "componentType" : 5126,
            "count" : 3672,
            "max" : [
                0.6941300630569458,
                21.95200538635254,
                0.6969267129898071
            ],
            "min" : [
                -0.6945211291313171,
                1.2239916324615479,
                -0.673363983631134
            ],
            "type" : "VEC3"
        },
        {
            "bufferView" : 17,
            "componentType" : 5126,
            "count" : 3672,
            "type" : "VEC3"
        },
        {
            "bufferView" : 18,
            "componentType" : 5126,
            "count" : 3672,
            "type" : "VEC2"
        },
        {
            "bufferView" : 19,
            "componentType" : 5123,
            "count" : 6180,
            "type" : "SCALAR"
        }
    ],
    "bufferViews" : [
        {
            "buffer" : 0,
            "byteLength" : 864,
            "byteOffset" : 0
        },
        {
            "buffer" : 0,
            "byteLength" : 864,
            "byteOffset" : 864
        },
        {
            "buffer" : 0,
            "byteLength" : 576,
            "byteOffset" : 1728
        },
        {
            "buffer" : 0,
            "byteLength" : 216,
            "byteOffset" : 2304
        },
        {
            "buffer" : 0,
            "byteLength" : 288,
            "byteOffset" : 2520
        },
        {
            "buffer" : 0,
            "byteLength" : 288,
            "byteOffset" : 2808
        },
        {
            "buffer" : 0,
            "byteLength" : 192,
            "byteOffset" : 3096
        },
        {
            "buffer" : 0,
            "byteLength" : 72,
            "byteOffset" : 3288
        },
        {
            "buffer" : 0,
            "byteLength" : 11568,
            "byteOffset" : 3360
        },
        {
            "buffer" : 0,
            "byteLength" : 11568,
            "byteOffset" : 14928
        },
        {
            "buffer" : 0,
            "byteLength" : 7712,
            "byteOffset" : 26496
        },
        {
            "buffer" : 0,
            "byteLength" : 2892,
            "byteOffset" : 34208
        },
        {
            "buffer" : 0,
            "byteLength" : 4992,
            "byteOffset" : 37100
        },
        {
            "buffer" : 0,
            "byteLength" : 4992,
            "byteOffset" : 42092
        },
        {
            "buffer" : 0,
            "byteLength" : 3328,
            "byteOffset" : 47084
        },
        {
            "buffer" : 0,
            "byteLength" : 1320,
            "byteOffset" : 50412
        },
        {
            "buffer" : 0,
            "byteLength" : 44064,
            "byteOffset" : 51732
        },
        {
            "buffer" : 0,
            "byteLength" : 44064,
            "byteOffset" : 95796
        },
        {
            "buffer" : 0,
            "byteLength" : 29376,
            "byteOffset" : 139860
        },
        {
            "buffer" : 0,
            "byteLength" : 12360,
            "byteOffset" : 169236
        }
    ],
    "buffers" : [
        {
            "byteLength" : 181596,
            "uri" : "data:application/octet-stream;base64,"
        }
    ]
}
