{
    "asset" : {
        "generator" : "Khronos glTF Blender I/O v1.8.19",
        "version" : "2.0"
    },
    "scene" : 0,
    "scenes" : [
        {
            "name" : "Scene",
            "nodes" : [
                0
            ]
        }
    ],
    "nodes" : [
        {
            "mesh" : 0,
            "name" : "Cylinder.001"
        }
    ],
    "materials" : [
        {
            "doubleSided" : true,
            "name" : "Material.009",
            "pbrMetallicRoughness" : {
                "baseColorFactor" : [
                    0.6618639230728149,
                    0.0007698562112636864,
                    0,
                    1
                ],
                "metallicFactor" : 0,
                "roughnessFactor" : 1
            }
        },
        {
            "doubleSided" : true,
            "name" : "Material.008",
            "pbrMetallicRoughness" : {
                "baseColorFactor" : [
                    0.31385767459869385,
                    0.4385440945625305,
                    0.2652781903743744,
                    1
                ],
                "metallicFactor" : 0,
                "roughnessFactor" : 1
            }
        },
        {
            "doubleSided" : true,
            "name" : "Material.007",
            "pbrMetallicRoughness" : {
                "baseColorFactor" : [
                    0.779251217842102,
                    0.8499760627746582,
                    1,
                    1
                ],
                "metallicFactor" : 0,
                "roughnessFactor" : 0.4000000059604645
            }
        },
        {
            "doubleSided" : true,
            "name" : "Material.006",
            "pbrMetallicRoughness" : {
                "baseColorFactor" : [
                    0.5206077694892883,
                    0.6401432752609253,
                    0.8000000715255737,
                    1
                ],
                "metallicFactor" : 0,
                "roughnessFactor" : 0.4000000059604645
            }
        }
    ],
    "meshes" : [
        {
            "name" : "Cylinder.001",
            "primitives" : [
                {
                    "attributes" : {
                        "POSITION" : 0,
                        "NORMAL" : 1,
                        "TEXCOORD_0" : 2
                    },
                    "indices" : 3,
                    "material" : 0
                },
                {
                    "attributes" : {
                        "POSITION" : 4,
                        "NORMAL" : 5,
                        "TEXCOORD_0" : 6
                    },
                    "indices" : 7,
                    "material" : 1
                },
                {
                    "attributes" : {
                        "POSITION" : 8,
                        "NORMAL" : 9,
                        "TEXCOORD_0" : 10
                    },
                    "indices" : 11,
                    "material" : 2
                },
                {
                    "attributes" : {
                        "POSITION" : 12,
                        "NORMAL" : 13,
                        "TEXCOORD_0" : 14
                    },
                    "indices" : 15,
                    "material" : 3
                }
            ]
        }
    ],
    "accessors" : [
        {
            "bufferView" : 0,
            "componentType" : 5126,
            "count" : 264,
            "max" : [
                0.4838672876358032,
                0.08399651944637299,
                0.08365701884031296
            ],
            "min" : [
                -0.3156448006629944,
                -0.0861901119351387,
                -0.08837396651506424
            ],
            "type" : "VEC3"
        },
        {
            "bufferView" : 1,
            "componentType" : 5126,
            "count" : 264,
            "type" : "VEC3"
        },
        {
            "bufferView" : 2,
            "componentType" : 5126,
            "count" : 264,
            "type" : "VEC2"
        },
        {
            "bufferView" : 3,
            "componentType" : 5123,
            "count" : 438,
            "type" : "SCALAR"
        },
        {
            "bufferView" : 4,
            "componentType" : 5126,
            "count" : 640,
            "max" : [
                0.4536040723323822,
                0.03376474604010582,
                0.041574686765670776
            ],
            "min" : [
                0.3007693290710449,
                -0.039390530437231064,
                -0.03198402374982834
            ],
            "type" : "VEC3"
        },
        {
            "bufferView" : 5,
            "componentType" : 5126,
            "count" : 640,
            "type" : "VEC3"
        },
        {
            "bufferView" : 6,
            "componentType" : 5126,
            "count" : 640,
            "type" : "VEC2"
        },
        {
            "bufferView" : 7,
            "componentType" : 5123,
            "count" : 960,
            "type" : "SCALAR"
        },
        {
            "bufferView" : 8,
            "componentType" : 5126,
            "count" : 440,
            "max" : [
                0.3020552396774292,
                0.07872737944126129,
                0.07793829590082169
            ],
            "min" : [
                -0.31162726879119873,
                -0.07996363937854767,
                -0.08198674023151398
            ],
            "type" : "VEC3"
        },
        {
            "bufferView" : 9,
            "componentType" : 5126,
            "count" : 440,
            "type" : "VEC3"
        },
        {
            "bufferView" : 10,
            "componentType" : 5126,
            "count" : 440,
            "type" : "VEC2"
        },
        {
            "bufferView" : 11,
            "componentType" : 5123,
            "count" : 660,
            "type" : "SCALAR"
        },
        {
            "bufferView" : 12,
            "componentType" : 5126,
            "count" : 288,
            "max" : [
                -0.2755591571331024,
                0.03936072438955307,
                0.03252706304192543
            ],
            "min" : [
                -0.320014089345932,
                -0.033794552087783813,
                -0.040464237332344055
            ],
            "type" : "VEC3"
        },
        {
            "bufferView" : 13,
            "componentType" : 5126,
            "count" : 288,
            "type" : "VEC3"
        },
        {
            "bufferView" : 14,
            "componentType" : 5126,
            "count" : 288,
            "type" : "VEC2"
        },
        {
            "bufferView" : 15,
            "componentType" : 5123,
            "count" : 474,
            "type" : "SCALAR"
        }
    ],
    "bufferViews" : [
        {
            "buffer" : 0,
            "byteLength" : 3168,
            "byteOffset" : 0
        },
        {
            "buffer" : 0,
            "byteLength" : 3168,
            "byteOffset" : 3168
        },
        {
            "buffer" : 0,
            "byteLength" : 2112,
            "byteOffset" : 6336
        },
        {
            "buffer" : 0,
            "byteLength" : 876,
            "byteOffset" : 8448
        },
        {
            "buffer" : 0,
            "byteLength" : 7680,
            "byteOffset" : 9324
        },
        {
            "buffer" : 0,
            "byteLength" : 7680,
            "byteOffset" : 17004
        },
        {
            "buffer" : 0,
            "byteLength" : 5120,
            "byteOffset" : 24684
        },
        {
            "buffer" : 0,
            "byteLength" : 1920,
            "byteOffset" : 29804
        },
        {
            "buffer" : 0,
            "byteLength" : 5280,
            "byteOffset" : 31724
        },
        {
            "buffer" : 0,
            "byteLength" : 5280,
            "byteOffset" : 37004
        },
        {
            "buffer" : 0,
            "byteLength" : 3520,
            "byteOffset" : 42284
        },
        {
            "buffer" : 0,
            "byteLength" : 1320,
            "byteOffset" : 45804
        },
        {
            "buffer" : 0,
            "byteLength" : 3456,
            "byteOffset" : 47124
        },
        {
            "buffer" : 0,
            "byteLength" : 3456,
            "byteOffset" : 50580
        },
        {
            "buffer" : 0,
            "byteLength" : 2304,
            "byteOffset" : 54036
        },
        {
            "buffer" : 0,
            "byteLength" : 948,
            "byteOffset" : 56340
        }
    ],
    "buffers" : [
        {
            "byteLength" : 57288,
            "uri" : "data:application/octet-stream;base64,"
        }
    ]
}
